<?xml version="1.0" standalone="no"?>
<!DOCTYPE svg PUBLIC "-//W3C//DTD SVG 20010904//EN"
 "http://www.w3.org/TR/2001/REC-SVG-20010904/DTD/svg10.dtd">
<svg version="1.0" xmlns="http://www.w3.org/2000/svg"
 width="760.000000pt" height="760.000000pt" viewBox="0 0 760.000000 760.000000"
 preserveAspectRatio="xMidYMid meet">
<metadata>
Created by potrace 1.14, written by Peter Selinger 2001-2017
</metadata>
<g transform="translate(0.000000,760.000000) scale(0.100000,-0.100000)"
fill="#000000" stroke="none">
<path d="M513 7350 c-117 -24 -213 -113 -247 -231 -15 -49 -16 -362 -14 -3334
l3 -3280 26 -55 c49 -104 140 -171 255 -190 80 -13 6448 -13 6528 0 113 18
205 85 256 186 l25 49 0 3310 0 3310 -23 46 c-36 74 -87 125 -160 161 l-67 33
-3270 1 c-1798 1 -3289 -2 -3312 -6z m2732 -986 c267 -69 577 -510 649 -923
l14 -84 -41 -78 c-23 -43 -46 -79 -50 -79 -4 0 -137 130 -295 289 -296 298
-459 441 -664 584 -65 45 -118 85 -118 90 0 22 146 121 228 156 49 20 182 59
207 60 6 1 38 -6 70 -15z m-1087 -179 c303 -34 811 -368 1218 -801 238 -253
334 -359 334 -369 0 -15 -160 -253 -238 -355 -85 -110 -338 -363 -472 -471
-113 -92 -150 -141 -150 -202 0 -135 204 -282 529 -379 58 -17 109 -34 113
-38 4 -3 -20 -34 -55 -68 l-62 -62 -53 20 c-70 27 -173 27 -246 0 -68 -26
-171 -119 -210 -191 -22 -40 -30 -70 -34 -124 -5 -88 8 -134 55 -186 48 -53
93 -79 155 -89 210 -33 424 139 432 347 l2 70 71 61 c39 34 100 95 134 136 59
69 124 114 141 98 3 -4 3 -59 0 -122 l-7 -116 -122 -154 c-237 -300 -370 -435
-538 -545 -102 -67 -181 -107 -272 -136 -40 -12 -73 -26 -73 -30 0 -3 50 -29
110 -58 61 -28 110 -56 110 -62 0 -15 -174 -94 -294 -134 -261 -87 -523 -85
-752 5 -226 90 -283 206 -201 408 65 159 253 349 512 518 71 47 278 158 366
198 9 4 10 8 3 11 -25 13 -236 142 -260 160 -15 11 -47 35 -73 54 -305 225
-614 591 -789 939 -153 302 -230 571 -233 815 -2 150 55 337 140 460 105 153
299 322 425 370 56 21 154 36 201 31 17 -2 54 -6 83 -9z m3983 -77 c0 -2 8
-75 17 -163 l17 -159 153 -41 c83 -22 152 -44 152 -50 0 -5 -66 -37 -146 -70
l-146 -59 6 -76 c17 -222 18 -250 9 -250 -6 0 -56 53 -112 119 l-101 119 -147
-55 c-80 -29 -153 -53 -160 -51 -9 2 15 49 72 140 l86 138 -100 124 c-56 68
-101 128 -101 134 0 5 66 -8 148 -29 81 -21 152 -39 157 -39 6 0 48 61 94 135
71 113 98 149 102 133z m-1382 -518 c296 -72 462 -259 406 -459 -10 -34 -21
-64 -26 -67 -4 -2 -45 14 -91 37 -112 57 -205 87 -303 99 -182 23 -309 -24
-431 -160 -114 -127 -176 -286 -264 -678 -86 -382 -173 -561 -298 -609 -62
-24 -194 -23 -287 1 -126 33 -363 158 -413 219 -10 12 6 30 100 110 137 115
329 308 437 440 105 127 230 315 392 590 269 453 270 455 352 479 114 32 286
32 426 -2z m1218 -356 c4 -11 -201 -817 -213 -836 -3 -5 -17 -2 -31 7 -15 10
-34 14 -48 11 -13 -3 -26 -2 -29 2 -4 7 183 757 210 843 4 16 8 16 56 1 28 -9
52 -22 55 -28z m-1212 -213 c39 -11 110 -38 159 -60 l88 -41 -7 -57 c-16 -130
-92 -288 -181 -376 -119 -120 -262 -154 -386 -94 -59 29 -144 112 -154 151 -6
26 52 192 98 279 67 125 182 217 273 217 22 0 72 -9 110 -19z m-475 -745 c84
-58 152 -78 260 -80 52 0 119 3 148 7 48 8 52 7 52 -10 0 -11 16 -82 36 -159
59 -233 49 -323 -56 -472 -27 -39 -89 -112 -137 -162 l-88 -92 -125 5 c-133 5
-241 32 -325 80 l-40 23 1 99 c2 127 35 287 79 385 41 91 86 228 109 333 10
42 22 77 27 77 5 0 32 -15 59 -34z m1394 -55 c25 -22 46 -73 46 -113 -1 -73
-63 -159 -128 -177 -66 -19 -121 26 -137 110 -13 68 51 169 121 194 43 15 69
12 98 -14z m-235 -443 c25 -12 69 -24 98 -26 29 -3 56 -8 59 -13 7 -12 -70
-192 -118 -274 -72 -123 -208 -295 -233 -295 -32 0 -325 305 -325 338 0 6 15
42 34 79 19 37 39 87 45 111 7 23 15 42 19 42 4 0 19 -19 34 -43 36 -57 156
-197 169 -197 16 0 86 117 125 211 20 49 39 89 42 89 3 0 26 -10 51 -22z
m-2183 -494 c58 -35 26 -144 -59 -201 -53 -36 -126 -51 -162 -35 -31 14 -45
64 -32 115 11 44 88 118 139 134 38 12 83 7 114 -13z m799 -98 c89 -32 226
-56 321 -56 84 0 75 10 99 -125 21 -118 21 -381 0 -550 -23 -191 -43 -297 -57
-307 -32 -22 -297 13 -503 67 -205 53 -665 221 -698 254 -5 5 16 26 52 51 176
119 335 277 541 535 110 138 137 166 154 162 12 -3 53 -17 91 -31z m-473
-1058 c59 -23 108 -47 108 -53 0 -11 -129 -183 -198 -264 l-43 -50 61 -31 c91
-46 228 -89 313 -98 l76 -8 29 40 c39 54 77 130 117 235 19 49 39 86 47 86 51
-1 207 -18 216 -24 15 -9 -41 -160 -100 -274 -49 -93 -140 -219 -194 -267 -36
-31 -38 -32 -108 -25 -157 14 -329 62 -536 149 -46 20 -89 36 -95 36 -6 0 -37
-22 -70 -48 -152 -123 -366 -253 -543 -331 -86 -38 -284 -111 -301 -111 -6 0
-60 179 -65 213 0 5 46 25 104 46 144 51 296 122 415 194 104 63 244 158 245
167 0 3 -40 27 -90 53 l-90 48 50 100 c28 54 53 99 56 99 3 0 61 -30 130 -66
l125 -66 36 33 c42 41 131 158 164 216 13 24 26 43 28 43 2 0 53 -19 113 -42z"/>
</g>
</svg>
